<?xml version="1.0" standalone="no"?>
<!DOCTYPE svg PUBLIC "-//W3C//DTD SVG 20010904//EN"
 "http://www.w3.org/TR/2001/REC-SVG-20010904/DTD/svg10.dtd">
<svg version="1.0" xmlns="http://www.w3.org/2000/svg"
 width="150.000000pt" height="36.000000pt" viewBox="0 0 150.000000 36.000000"
 preserveAspectRatio="xMidYMid meet">

<g transform="translate(0.000000,36.000000) scale(0.100000,-0.100000)"
fill="#000000" stroke="none">
<path d="M135 333 c-67 -17 -122 -103 -110 -174 18 -106 149 -165 235 -106 53
36 74 71 74 125 0 106 -96 181 -199 155z m29 -35 c-2 -13 -2 -18 2 -11 3 7 12
9 20 6 10 -4 12 0 8 11 -15 39 80 -4 107 -48 72 -119 -71 -268 -189 -196 -66
41 -89 116 -55 187 27 58 116 100 107 51z"/>
<path d="M176 273 c-4 -4 -17 -8 -29 -8 -12 0 -23 -7 -25 -17 -2 -13 3 -18 17
-18 19 0 20 -2 6 -41 -18 -50 -19 -111 -3 -127 7 -7 24 -12 38 -12 51 0 64 48
35 130 -19 53 -19 50 6 50 14 0 19 5 17 18 -2 9 -12 17 -23 17 -11 0 -23 3
-26 8 -3 4 -9 4 -13 0z m-9 -29 c-3 -3 -12 -4 -19 -1 -8 3 -5 6 6 6 11 1 17
-2 13 -5z m35 -6 c-7 -7 -12 -27 -12 -45 0 -18 -4 -33 -10 -33 -27 0 -3 89 25
90 5 0 4 -5 -3 -12z m1 -88 c-6 -23 -38 -27 -46 -6 -4 9 0 12 13 9 10 -3 21 0
24 6 11 17 15 13 9 -9z m7 -46 c0 -34 -54 -39 -62 -6 -4 13 2 17 29 17 18 0
33 -5 33 -11z"/>
<path d="M1040 282 c-49 -5 -63 -22 -18 -22 35 0 36 -1 36 -40 0 -22 -3 -40
-7 -40 -14 0 -20 -37 -8 -49 17 -17 52 -13 70 7 24 26 21 49 -8 68 -20 13 -22
19 -12 35 16 26 -8 45 -53 41z m68 -116 c-3 -24 -34 -34 -52 -16 -8 8 -7 10 7
5 13 -6 17 -2 17 19 0 19 4 24 16 19 8 -3 14 -15 12 -27z"/>
<path d="M760 234 c0 -31 -3 -35 -20 -29 -12 4 -20 2 -20 -4 0 -7 -7 -7 -20 1
-17 11 -22 10 -30 -2 -6 -8 -9 -26 -8 -40 2 -19 9 -25 28 -25 20 0 26 6 28 28
2 19 9 27 24 27 18 0 19 -4 13 -40 -4 -26 -3 -40 4 -40 6 0 11 15 11 34 0 22
6 36 16 40 27 10 34 7 34 -18 0 -13 7 -27 16 -30 25 -9 72 -7 79 4 10 16 23
12 30 -10 4 -11 11 -18 16 -15 5 4 5 15 -2 27 -10 18 -8 24 7 36 18 13 17 14
-8 8 -21 -5 -30 -1 -42 16 -11 16 -16 18 -16 7 0 -8 6 -21 12 -27 16 -16 -5
-32 -40 -32 -19 0 -22 4 -17 20 3 11 0 29 -8 40 -12 18 -16 18 -33 5 -29 -22
-34 -18 -34 20 0 19 -4 35 -10 35 -5 0 -10 -16 -10 -36z m-55 -64 c0 -7 -6
-15 -12 -17 -8 -3 -13 4 -13 17 0 13 5 20 13 18 6 -3 12 -11 12 -18z"/>
<path d="M1248 255 c-14 -42 -20 -145 -9 -145 6 0 11 19 11 45 0 42 1 44 22
36 19 -7 22 -14 20 -46 -3 -25 0 -35 7 -31 6 4 11 20 11 36 0 24 7 31 45 47
25 10 45 21 45 26 0 12 -25 8 -46 -8 -29 -22 -34 -18 -34 20 0 19 -4 35 -10
35 -5 0 -10 -16 -10 -35 0 -19 -3 -35 -7 -35 -19 1 -31 17 -35 45 -3 25 -5 27
-10 10z"/>
<path d="M444 230 l-18 -30 -11 27 -11 27 -22 -22 c-23 -23 -32 -92 -12 -92 6
0 10 15 10 34 0 45 16 55 25 16 9 -39 18 -38 38 6 21 44 41 40 45 -9 2 -20 8
-37 13 -37 12 0 2 80 -13 98 -16 18 -25 15 -44 -18z"/>
<path d="M527 203 c-4 -3 -7 -21 -7 -40 0 -28 3 -33 25 -33 18 0 26 7 31 25 9
37 -26 71 -49 48z m37 -21 c2 -4 1 -14 -4 -22 -7 -11 -12 -12 -21 -3 -6 6 -8
16 -5 22 8 13 23 14 30 3z"/>
<path d="M1148 186 c-6 -14 -8 -32 -4 -41 5 -14 8 -14 31 1 23 15 25 15 25 0
0 -9 5 -16 11 -16 14 0 1 62 -15 72 -20 14 -36 8 -48 -16z m23 -19 c-8 -8 -11
-7 -11 4 0 20 13 34 18 19 3 -7 -1 -17 -7 -23z"/>
<path d="M1414 196 c-10 -25 0 -51 21 -54 23 -3 53 14 42 24 -3 4 -14 1 -22
-6 -21 -17 -46 3 -27 22 7 7 12 16 12 20 0 14 -20 9 -26 -6z"/>
<path d="M600 179 c-10 -17 -8 -21 9 -26 25 -6 29 -58 8 -88 -13 -17 -15 -17
-35 3 -25 25 -32 27 -32 11 0 -17 32 -38 57 -39 17 0 24 8 32 38 17 58 14 82
-11 92 -18 7 -19 9 -5 9 21 1 23 21 2 21 -8 0 -19 -9 -25 -21z"/>
<path d="M1373 189 c-12 -12 -6 -49 8 -49 5 0 9 14 9 30 0 33 -1 35 -17 19z"/>
<path d="M1435 99 c-18 -7 -19 -8 -1 -8 15 -1 17 -6 12 -36 -6 -30 -4 -35 12
-35 25 0 35 25 17 40 -8 6 -12 17 -9 25 7 18 -7 24 -31 14z m32 -61 c-3 -8 -6
-5 -6 6 -1 11 2 17 5 13 3 -3 4 -12 1 -19z"/>
<path d="M1386 79 c-9 -13 -16 -32 -16 -43 0 -20 0 -20 15 0 13 16 16 17 25 4
8 -12 10 -10 10 10 0 14 -4 31 -9 39 -7 10 -12 8 -25 -10z"/>
<path d="M1301 63 c-1 -27 15 -38 34 -23 10 9 14 7 18 -7 3 -10 5 -3 6 15 1
37 -11 42 -26 10 l-11 -23 -10 25 c-10 24 -11 24 -11 3z"/>
</g>
</svg>
